<svg width="24" height="24" viewBox="0 0 24 24" fill="none" xmlns="http://www.w3.org/2000/svg">
<g clip-path="url(#clip0_56_231)">
<path d="M13.454 23.9133C19.396 23.194 24 18.1347 24 12C24 5.37267 18.6273 0 12 0C5.37267 0 0 5.37267 0 12C0 17.628 3.874 22.3507 9.10133 23.6473L9.33333 22.6667H13L13.454 23.9133Z" fill="#0866FF"/>
<path d="M9.10069 23.6473V15.6673H6.62402V12H9.10069V10.42C9.10069 6.33533 10.9487 4.444 14.9567 4.444C15.7154 4.444 17.0254 4.59267 17.5634 4.74133V8.06333C17.28 8.03467 16.7854 8.02 16.176 8.02C14.208 8.02 13.4494 8.764 13.4494 10.7033V12H17.3714L16.6994 15.6667H13.4547V23.9133C11.9994 24.0886 10.5245 23.9985 9.10136 23.6473H9.10069Z" fill="white"/>
</g>
<defs>
<clipPath id="clip0_56_231">
<rect width="24" height="24" fill="white"/>
</clipPath>
</defs>
</svg>
