<svg width="24" height="25" viewBox="0 0 24 25" fill="none" xmlns="http://www.w3.org/2000/svg">
<g clip-path="url(#clip0_56_238)">
<path d="M23.4394 12.7339C23.4394 11.7096 23.3596 10.9622 23.187 10.1871H11.959V14.81H18.5496C18.4167 15.9589 17.6992 17.689 16.1047 18.8516L16.0823 19.0064L19.6324 21.8712L19.8783 21.8967C22.1372 19.7237 23.4394 16.5263 23.4394 12.7339Z" fill="#4285F4"/>
<path d="M11.9586 24.9141C15.1874 24.9141 17.898 23.8068 19.878 21.8968L16.1043 18.8516C15.0944 19.5852 13.7391 20.0973 11.9586 20.0973C8.79618 20.0973 6.11212 17.9243 5.15533 14.9208L5.01509 14.9332L1.32367 17.9091L1.27539 18.0489C3.24193 22.1181 7.28134 24.9141 11.9586 24.9141Z" fill="#34A853"/>
<path d="M5.15551 14.9208C4.90305 14.1457 4.75695 13.3152 4.75695 12.457C4.75695 11.5988 4.90305 10.7684 5.14223 9.99331L5.13554 9.82823L1.39786 6.80457L1.27557 6.86516C0.465069 8.5538 0 10.4501 0 12.457C0 14.464 0.465069 16.3602 1.27557 18.0488L5.15551 14.9208Z" fill="#FBBC05"/>
<path d="M11.9586 4.8167C14.2042 4.8167 15.7189 5.8271 16.5826 6.67147L19.9576 3.23884C17.8849 1.23187 15.1874 0 11.9586 0C7.28134 0 3.24192 2.7959 1.27539 6.86517L5.14205 9.99332C6.11212 6.98979 8.79618 4.8167 11.9586 4.8167Z" fill="#EB4335"/>
</g>
<defs>
<clipPath id="clip0_56_238">
<rect width="24" height="25" fill="white"/>
</clipPath>
</defs>
</svg>
